PathFileType	4	(X/Y/Z)	C:/Users/beibeiliu/ov580/test_trc/User2\sequence.22_training_dense_left.trc
DataRate	CameraRate	NumFrames	NumMarkers	Units	OrigDataRate	OrigDataStartFrame	OrigNumFrames
120	120	13	19	mm	120	56	83
Frame#	Time	ThumbCMC			ThumbMCP			ThumbIP			ThumbTip			IndexMCP			IndexPIP			IndexTip			MiddleMCP			MiddlePIP			MiddleTip			RingMCP			RingPIP			RingTip			PinkyMCP			PinkyPIP			PinkyTip			BackHand1			BackHand2			BackHand3	
		X0	Y0	Z0	X1	Y1	Z1	X2	Y2	Z2	X3	Y3	Z3	X4	Y4	Z4	X5	Y5	Z5	X6	Y6	Z6	X7	Y7	Z7	X8	Y8	Z8	X9	Y9	Z9	X10	Y10	Z10	X11	Y11	Z11	X12	Y12	Z12	X13	Y13	Z13	X14	Y14	Z14	X15	Y15	Z15	X16	Y16	Z16	X17	Y17	Z17	X18	Y18	Z18	
55	0.458333	-212.905	67.8716	24.8392	-193.522	59.8167	-7.52252	-188.499	56.2276	-40.4952	-194.629	54.8228	-69.7182	-224.941	117.125	-36.8591	-213.982	102.184	-66.9362	-208.655	69.1981	-70.5912	-243.759	111.385	-49.4632	-229.136	89.7524	-78.4587	-223.506	54.0879	-76.623	-262.055	97.4781	-50.8223	-248.292	72.8671	-76.6929	-233.296	46.4211	-66.6949	-279.035	78.0915	-49.6314	-259.549	60.8746	-67.3197	-240.578	32.0691	-58.5612	-277.486	90.5775	10.6736	-279.983	76.7082	39.4122	-247.76	95.1076	34.8441	
56	0.466667	-207.438	51.869	19.7109	-193.051	33.9482	-9.35922	-186.753	22.3684	-42.2377	-198.016	14.7251	-67.1917	-223.735	86.1387	-51.1388	-216.662	63.9274	-74.6155	-211.578	32.4463	-67.1512	-246.017	77.1219	-60.1829	-237.167	45.9658	-80.4529	-228.604	11.5529	-65.6707	-265.223	63.4091	-54.6453	-253.8	32.8239	-72.0102	-234.866	10.531	-53.2398	-280.731	47.3072	-43.9452	-263.829	22.6484	-58.2261	-242.466	1.90012	-40.5578	-277.605	75.7966	3.57977	-277.554	67.3273	41.6277	-239.166	82.0741	23.4301	
57	0.475	-206.968	41.7749	25.7489	-189.662	18.1163	4.36665	-179.066	-4.12858	-23.8929	-187.531	-20.5164	-41.8898	-221.412	40.9859	-57.9402	-211.864	13.0777	-68.3602	-198.607	-7.61396	-44.0258	-241.045	25.6492	-60.7899	-225.574	-4.75254	-67.9857	-208.41	-29.6702	-37.0792	-254.579	8.52811	-54.2315	-236.282	-17.8564	-55.4371	-218.616	-26.5707	-29.2562	-269.967	-4.94189	-34.7266	-243.704	-29.4151	-32.4608	-222.479	-28.6025	-10.2925	-275.446	41.6734	0.365251	-274.152	51.8188	33.5619	-244.42	64.8822	15.7213	
58	0.483333	-206.903	55.8114	23.6961	-178.338	35.7219	12.4577	-155.561	15.1664	-2.94166	-156.275	-12.2253	-18.358	-207.647	22.8546	-54.1559	-184.14	0.0675467	-57.4531	-166.209	-8.55327	-24.2328	-216.45	0.820363	-52.6571	-183.637	-22.248	-45.6801	-168.121	-25.9676	-10.7515	-224.31	-18.3156	-41.5983	-195.058	-34.6625	-31.1669	-181.389	-26.544	-3.29033	-233.258	-33.1618	-21.8095	-202.55	-38.5138	-10.7944	-189.357	-21.1756	15.5062	-262.662	17.3386	-8.50279	-276.139	30.1735	24.5869	-250.431	51.0314	2.12915	
59	0.491667	-223.372	68.7418	15.6422	-186.301	67.6674	10.3988	-154.088	57.4887	1.49806	-142.382	30.1173	-4.85802	-188.398	28.2449	-55.7112	-155.995	24.6092	-50.4553	-143.533	25.0425	-22.4018	-185.518	3.58503	-48.3112	-152.217	4.39424	-37.3777	-142.369	10.8965	0.960801	-183.891	-14.1289	-32.6591	-155.403	-7.27052	-17.2882	-154.099	9.79528	14.6559	-192.685	-26.6325	-10.1804	-162.163	-13.1237	6.80657	-166.159	7.90513	24.2591	-246.757	-3.78542	-5.6641	-267.91	6.74339	16.9824	-252.272	39.8298	-8.04905	
60	0.5	-240.841	72.1263	5.80566	-208.623	88.1635	0.241211	-170.498	94.1222	-9.78097	-151.957	74.5055	-10.3035	-190.828	42.5366	-55.6349	-157.582	51.8896	-55.1782	-143.576	67.1786	-23.0708	-174.982	27.6342	-49.7246	-144.197	40.6679	-38.1772	-140.162	63.611	-2.33339	-165.216	10.7598	-31.252	-140.524	28.8708	-17.2233	-147.761	51.1584	6.93132	-166.917	0.779559	-9.08837	-144.719	22.7275	4.51387	-154.364	45.3268	23.694	-223.697	-1.7749	-8.5227	-251.872	0.399547	17.5403	-247.654	26.7591	-9.46342	
61	0.508333	-253.919	70.3768	-0.276151	-230.57	96.9881	-9.93632	-200.758	113.186	-22.15	-169.952	102.426	-27.0796	-199.597	48.9273	-60.98	-171.646	69.8934	-65.1467	-165.006	95.209	-41.445	-178.835	42.5579	-55.9444	-153.713	68.3542	-47.6338	-156.935	92.5904	-17.7234	-164.677	29.8016	-35.6304	-147.049	58.4787	-31.8248	-156.652	80.243	-4.16256	-158.038	23.2749	-14.523	-145.694	54.8021	-9.12837	-162.177	74.0704	7.70591	-212.667	4.27893	-6.50869	-237.061	1.02321	18.4549	-252.157	25.0325	-11.0699	
62	0.516667	-266.953	64.4623	-0.602376	-249.045	92.8473	-20.4879	-228.496	111.113	-35.9845	-197.481	106.995	-46.099	-217.454	48.665	-71.0204	-197.872	71.4247	-80.7793	-190.111	100.551	-57.6604	-197.547	43.8565	-65.26	-178.297	78.0499	-67.5826	-177.506	102.521	-38.8327	-177.307	39.7284	-49.672	-166.394	68.7886	-53.2121	-175.915	94.5164	-26.0079	-169.283	34.3545	-28.0945	-158.374	67.0393	-31.0276	-172.656	90.7045	-12.6567	-219.213	7.56936	-5.14982	-235.849	4.53976	20.6745	-254.693	20.4333	-8.19886	
63	0.525	-276.541	56.51	0.260247	-267.85	82.5813	-24.2963	-252.285	99.5518	-49.1754	-224.629	98.0775	-63.1431	-242.493	36.6872	-74.6571	-225.498	61.4787	-91.3665	-219.195	92.8411	-77.0794	-218.942	34.4648	-74.6414	-206.032	65.5149	-85.1872	-206.177	97.9461	-61.8142	-200.767	31.7236	-60.5958	-191.214	63.5222	-71.3862	-195.64	90.0098	-49.0829	-189.447	29.7818	-41.4994	-177.725	60.9653	-54.25	-191.729	87.8744	-40.0242	-227.065	6.16302	-8.24364	-233.925	0.0887524	25.0591	-263.892	12.6188	-6.41093	
64	0.533333	-284.011	44.2027	0.510393	-281.517	69.4826	-25.013	-272.218	83.3829	-61.4125	-248.136	80.8097	-75.4718	-262.835	17.9771	-76.6284	-250.805	41.3711	-97.9968	-245.516	71.1335	-92.0722	-244.053	14.7664	-79.0908	-229.668	47.2406	-95.2796	-226.591	80.7323	-76.0661	-218.915	14.6114	-70.652	-213.201	42.9977	-85.0914	-218.461	74.1013	-65.7631	-208.308	16.5934	-52.5055	-200.758	43.585	-72.1458	-203.336	72.8576	-62.2473	-235.296	-4.79946	-9.11585	-239.959	-3.88024	23.6138	-272.797	4.50585	-0.884073	
65	0.541667	-292.789	35.6365	0.174923	-289.928	54.6726	-33.1022	-285.342	68.1725	-60.4419	-267.024	64.1431	-85.2287	-284.533	-0.560643	-71.4366	-271.47	19.6727	-99.1437	-262.032	53.5901	-97.9679	-263.651	-4.33543	-80.0009	-248.571	23.9719	-100.87	-241.146	57.3596	-88.2703	-242.628	-3.04528	-74.9556	-234.604	23.1911	-92.6954	-232.822	54.292	-77.6712	-225.133	-0.519991	-60.772	-217.079	22.7336	-81.239	-225.323	53.3216	-76.8436	-246.765	-15.3778	-8.10979	-245.979	-16.0979	20.9187	-280.688	-8.07823	3.17574	
66	0.55	-303.007	32.7037	-1.53459	-300.693	51.1535	-32.308	-296.22	60.3306	-66.1514	-280.742	55.3097	-92.4557	-304.598	-8.76537	-70.5375	-293.229	7.32538	-100.348	-279.367	39.8862	-101.381	-281.703	-17.6357	-80.6219	-273.267	5.40118	-105.097	-257.717	43.702	-93.3555	-260.641	-18.4612	-76.7822	-250.264	3.80984	-98.187	-248.563	35.8331	-87.7453	-241.401	-18.333	-60.0409	-238.208	3.28238	-86.1559	-233.441	34.2135	-85.2455	-263.957	-26.2127	-8.98223	-259.607	-21.9371	19.4255	-295.857	-13.1943	4.55665	
67	0.558333	-311.637	36.9993	-2.28106	-305.201	55.1454	-32.3415	-303.44	66.2789	-67.5264	-286.616	53.3827	-91.5719	-320.477	-4.62207	-71.1229	-311.49	10.298	-99.6536	-292.272	38.7514	-103.155	-302.344	-16.689	-79.5309	-288.392	5.48243	-106.615	-268.342	36.4326	-98.1071	-282.504	-22.9795	-78.0867	-270.675	0.0174964	-100.839	-261.504	30.6275	-89.9212	-261.816	-25.0742	-68.0709	-254.523	-3.59726	-92.2618	-249.484	27.777	-87.9182	-282.245	-30.2279	-11.6339	-277.22	-23.8415	16.2726	-310.588	-9.29062	3.08624	
